<svg width="50" height="48" viewBox="0 0 50 48" fill="none" xmlns="http://www.w3.org/2000/svg">
<path d="M30.4135 40.0922V45.9669H30.5613C32.3549 45.9669 34.1483 45.9669 35.9417 45.9669C36.5303 45.9669 36.9206 46.5423 36.6947 47.0811C36.5642 47.3939 36.3182 47.5535 35.9851 47.5778C35.96 47.5796 35.9349 47.5778 35.9098 47.5778H13.8035C13.4036 47.5778 13.0949 47.3614 12.9908 47.0093C12.9538 46.8884 12.9455 46.7604 12.9667 46.6357C12.9879 46.511 13.038 46.3931 13.1128 46.2917C13.1876 46.1902 13.285 46.1081 13.3972 46.0519C13.5094 45.9957 13.6331 45.9671 13.7583 45.9684C14.507 45.9651 15.2557 45.9684 16.0044 45.9684H19.2873V40.0922H3.90982C2.06005 40.0922 0.383707 38.6675 0.0727342 36.8227C0.0275023 36.5576 0.00433044 36.2892 0.00346188 36.0203C0.000115396 25.3444 -0.000804888 14.6685 0.000701031 3.99256C0.000701031 2.01784 1.47374 0.310008 3.41035 0.0441421C3.61123 0.0163095 3.81373 0.00215556 4.01649 0.0017761C17.9245 0.000592222 31.8325 2.81075e-07 45.7405 2.81075e-07C46.6968 -0.000361538 47.6211 0.348606 48.343 0.982612C49.0649 1.61662 49.5358 2.49295 49.6689 3.45017C49.6963 3.64463 49.7102 3.84079 49.7106 4.0372C49.7126 14.7173 49.7132 25.3976 49.7124 36.0781C49.7124 38.0909 48.2355 39.799 46.2651 40.061C46.1099 40.0813 45.9536 40.0913 45.7972 40.091C40.7254 40.0925 35.6538 40.0925 30.5822 40.091L30.4135 40.0922ZM1.59547 32.0571H48.1176V31.895C48.1176 22.6 48.1176 13.3051 48.1176 4.01031C48.1161 3.37455 47.8656 2.76525 47.4207 2.31577C46.9759 1.86628 46.373 1.61321 45.744 1.61194H3.96905C3.34007 1.61328 2.73723 1.86637 2.29241 2.31584C1.84758 2.76531 1.59699 3.37457 1.59547 4.01031C1.59547 13.3053 1.59547 22.6002 1.59547 31.895V32.0571ZM48.1176 33.6876H1.59547V33.8228C1.59547 34.5881 1.59547 35.3534 1.59547 36.1187C1.59748 37.398 2.6707 38.4803 3.93793 38.4803H45.7746C47.0424 38.4803 48.1156 37.3983 48.1176 36.1189C48.1188 35.3537 48.1188 34.5884 48.1176 33.8231V33.6876ZM28.8052 45.9626V40.1006H20.8991V45.9626H28.8052Z" transform="translate(0 0.408203)" fill="black"/>
<path d="M41.7664 25.6523V1.61752H1.60104V25.652H1.7943C12.8892 25.652 23.9842 25.652 35.0791 25.652C35.4077 25.652 35.6797 25.7568 35.8504 26.0513C36.0055 26.3189 36.0085 26.5998 35.8524 26.8682C35.6963 27.1366 35.4561 27.2655 35.1466 27.2655C29.7791 27.2655 24.4114 27.2655 19.0436 27.2655H0.859629C0.326283 27.2655 0 26.9357 0 26.394C0 17.8902 0 9.3864 0 0.882583C0 0.326751 0.324526 0 0.876194 0H42.4852C43.0439 0 43.3662 0.32599 43.3662 0.890702C43.3662 9.39029 43.3662 17.8898 43.3662 26.3892C43.3662 26.9379 43.0419 27.2655 42.4985 27.2655C41.1111 27.2655 39.7237 27.2655 38.3364 27.2655C37.9426 27.2655 37.6103 26.9793 37.5551 26.5978C37.4956 26.1858 37.7152 25.8144 38.0977 25.6977C38.1993 25.6687 38.3045 25.6546 38.41 25.6558C39.4758 25.6529 40.5418 25.6523 41.6078 25.654L41.7664 25.6523Z" transform="translate(3.17383 3.61621)" fill="black"/>
<path d="M7.20797 2.19064C7.20797 1.82355 7.20797 1.45189 7.20797 1.08024C7.20797 0.471388 7.67555 -0.00098157 8.27742 3.31855e-05C8.41729 -0.0010826 8.55598 0.0259491 8.68541 0.0795525C8.81484 0.133156 8.93242 0.212259 9.03131 0.312254C9.13019 0.412248 9.2084 0.531134 9.26137 0.661984C9.31434 0.792834 9.34102 0.93303 9.33985 1.07441C9.33985 1.42069 9.33784 1.76698 9.34311 2.11326C9.34311 2.15055 9.38051 2.21169 9.41163 2.22006C9.73791 2.30759 10.0642 2.38648 10.4116 2.47375C10.4241 2.45397 10.4495 2.41617 10.472 2.37684C10.6349 2.09221 10.7956 1.8063 10.9605 1.52293C11.2014 1.10941 11.6288 0.912552 12.0924 0.998045C12.5163 1.07593 12.8454 1.41942 12.9292 1.8715C12.9794 2.14472 12.9169 2.39587 12.7786 2.63256C12.5992 2.9413 12.424 3.25258 12.2515 3.55269C12.5003 3.81222 12.7392 4.06464 12.9839 4.31122C13.0027 4.32999 13.0693 4.32061 13.1014 4.30234C13.3885 4.13922 13.6731 3.97128 13.9585 3.80435C14.4918 3.49231 15.1396 3.65493 15.4368 4.1755C15.7398 4.70622 15.5588 5.34906 15.0179 5.66491C14.7075 5.84604 14.3973 6.02743 14.0873 6.20907C14.1407 6.39274 14.1952 6.56677 14.2414 6.74308C14.2875 6.9194 14.3259 7.09825 14.3691 7.28319C14.7443 7.28319 15.1163 7.27583 15.488 7.28496C15.928 7.29587 16.2593 7.50161 16.4455 7.90701C16.6292 8.30708 16.575 8.69217 16.3045 9.03719C16.0876 9.31346 15.7907 9.43092 15.4474 9.4332C15.1344 9.43548 14.8214 9.4332 14.5084 9.4332H14.3782L14.0943 10.5083C14.4073 10.6918 14.7325 10.88 15.0556 11.072C15.3294 11.2346 15.5023 11.4751 15.5575 11.7912C15.6363 12.2316 15.4983 12.5995 15.1427 12.8618C14.7822 13.1274 14.3897 13.1424 13.9959 12.929C13.7281 12.7837 13.4688 12.6226 13.205 12.4691C13.1433 12.4331 13.0795 12.3988 13.0437 12.3981L12.2656 13.1845C12.3276 13.2941 12.4124 13.4445 12.4978 13.5947C12.6009 13.7761 12.7091 13.9547 12.8077 14.1384C13.0944 14.6711 12.9141 15.3084 12.3974 15.6009C11.8894 15.8886 11.2601 15.7097 10.9587 15.1899C10.7732 14.87 10.5905 14.5483 10.4101 14.2332L9.33985 14.5199V14.6361C9.33985 14.9744 9.33985 15.3121 9.33985 15.6493C9.33985 16.2392 8.86849 16.7082 8.27717 16.7095C7.67982 16.7108 7.20872 16.2412 7.20797 15.644C7.20797 15.2683 7.20797 14.8926 7.20797 14.5207L6.14027 14.2338C6.1222 14.2629 6.0966 14.301 6.07376 14.3408C5.90861 14.629 5.74748 14.9195 5.57906 15.2059C5.43972 15.4467 5.21291 15.623 4.94689 15.6974C4.68087 15.7717 4.39665 15.7382 4.15472 15.6039C3.64421 15.318 3.45195 14.6906 3.72628 14.1673C3.8844 13.8657 4.06135 13.5742 4.22825 13.2779C4.25335 13.2342 4.27644 13.1896 4.28498 13.1738L3.49362 12.3808C3.20599 12.5488 2.88447 12.7441 2.55568 12.9255C2.15937 13.1442 1.76357 13.1259 1.39738 12.8588C0.786725 12.413 0.830147 11.4764 1.47493 11.0829C1.76407 10.9054 2.05948 10.74 2.35188 10.5687C2.38802 10.5477 2.42341 10.5253 2.4475 10.5106C2.36317 10.1666 2.28336 9.83149 2.19476 9.49865C2.18698 9.46922 2.12223 9.43726 2.08357 9.43675C1.75378 9.43193 1.42373 9.43675 1.09393 9.43295C0.475001 9.42407 0.00540456 8.96616 0.000133845 8.37177C-0.00209098 8.23034 0.0234405 8.08987 0.0752506 7.95848C0.127061 7.82709 0.204122 7.70738 0.301981 7.60627C0.39984 7.50516 0.516556 7.42466 0.645381 7.36943C0.774206 7.31419 0.912586 7.28531 1.05252 7.28445C1.42448 7.27887 1.79645 7.28445 2.16866 7.28445L2.45252 6.20602C2.19878 6.05787 1.93022 5.90616 1.66744 5.74533C1.52739 5.65958 1.37956 5.5751 1.26586 5.45967C0.895403 5.08269 0.865285 4.5025 1.17525 4.07275C1.32383 3.86975 1.53904 3.72682 1.78235 3.66955C2.02567 3.61229 2.28121 3.64442 2.50322 3.76021C2.79888 3.91572 3.08325 4.09356 3.37289 4.2615C3.42033 4.2889 3.46802 4.31604 3.48508 4.32568L4.27695 3.52047C4.13865 3.27846 3.97576 2.98976 3.80911 2.7041C3.69139 2.50267 3.60104 2.29566 3.60254 2.05491C3.60531 1.57011 3.90799 1.15559 4.36379 1.02113C4.58631 0.952738 4.82504 0.961197 5.04228 1.04517C5.25952 1.12914 5.44291 1.28385 5.5635 1.48487C5.74647 1.78702 5.91639 2.09728 6.09233 2.40399C6.10714 2.42936 6.12295 2.45473 6.13751 2.4801L7.20797 2.19064ZM8.27817 4.25922C6.03837 4.25922 4.21345 6.09745 4.21219 8.35528C4.21219 10.6032 6.03235 12.4501 8.24981 12.4516C10.5057 12.4531 12.3324 10.625 12.3339 8.3639C12.3354 6.10277 10.5132 4.25947 8.27817 4.25922Z" transform="translate(16.5957 8.82129)" fill="black"/>
</svg>
