<svg width="108" height="97" viewBox="0 0 108 97" fill="none" xmlns="http://www.w3.org/2000/svg">
<path d="M5.6269 12.2878C8.73455 12.2878 11.2538 9.5371 11.2538 6.14391C11.2538 2.75072 8.73455 0 5.6269 0C2.51925 0 0 2.75072 0 6.14391C0 9.5371 2.51925 12.2878 5.6269 12.2878Z" transform="translate(46.5508 57.1763)" stroke="#1F1B20" stroke-width="3" stroke-miterlimit="22.9256"/>
<path d="M12.3828 46.2315L13.1844 51.7605M13.1844 51.7605L7.64018 52.56M13.1844 51.7605C5.04711 46.2795 1.0941e-06 38.6478 1.0941e-06 30.208C1.0941e-06 13.5247 19.7214 4.36445e-07 44.0489 4.36445e-07C53.2433 4.36445e-07 61.7799 1.93203 68.8423 5.2361" transform="translate(11.9795 28.0627)" stroke="#1F1B20" stroke-width="3" stroke-miterlimit="22.9256"/>
<path fill-rule="evenodd" clip-rule="evenodd" d="M14.4778 18.5217C16.7719 18.5217 19.0251 18.4015 21.2245 18.1696V13.9229C21.2253 13.8787 21.2258 13.8342 21.2258 13.7896V5.42732C21.2258 3.82902 20.6836 2.32893 19.741 1.04214C18.3023 -0.857156 16.7609 0.377907 16.5168 0.594216C15.0272 1.97374 12.9325 2.83217 10.6128 2.83217C8.31016 2.83217 6.22965 1.98615 4.74226 0.624942C4.74226 0.624942 3.05254 -1.02777 1.48459 1.04214C0.542369 2.32871 -5.25169e-06 3.82925 -5.25169e-06 5.42732V13.7896C-5.25169e-06 13.9613 0.00627052 14.1323 0.0185945 14.3016V16.8604C0.191802 16.8992 0.355827 16.9359 0.406355 16.9476C4.82483 17.968 9.55723 18.5217 14.4778 18.5217Z" transform="translate(41.5508 69.9571)" stroke="#1F1B20" stroke-width="3" stroke-miterlimit="22.9256"/>
<path d="M5.6269 12.2878C8.73455 12.2878 11.2538 9.5371 11.2538 6.14391C11.2538 2.75072 8.73455 0 5.6269 0C2.51925 0 0 2.75072 0 6.14391C0 9.5371 2.51925 12.2878 5.6269 12.2878Z" transform="translate(62.7949 61.0785)" stroke="#1F1B20" stroke-width="3" stroke-miterlimit="22.9256"/>
<path d="M5.6269 12.2878C8.73455 12.2878 11.2538 9.5371 11.2538 6.14391C11.2538 2.75072 8.73455 0 5.6269 0C2.51925 0 0 2.75072 0 6.14391C0 9.5371 2.51925 12.2878 5.6269 12.2878Z" transform="translate(50.249 3.52368)" stroke="#1F1B20" stroke-width="3" stroke-miterlimit="22.9256"/>
<path d="M21.2258 12.613V5.42732C21.2258 3.82902 20.6836 2.32893 19.741 1.04214C18.3023 -0.857156 16.7609 0.377907 16.5168 0.594216C15.0272 1.97374 12.9325 2.83216 10.6128 2.83216C8.31016 2.83216 6.22965 1.98615 4.74226 0.624942C4.74226 0.624942 3.05253 -1.02777 1.48459 1.04214C0.542368 2.32871 3.93877e-06 3.82925 3.93877e-06 5.42732V12.6695" transform="translate(45.2485 16.3044)" stroke="#1F1B20" stroke-width="3" stroke-miterlimit="22.9256"/>
<path d="M5.6269 12.2878C8.73455 12.2878 11.2538 9.5371 11.2538 6.14391C11.2538 2.75073 8.73455 -3.928e-06 5.6269 -3.928e-06C2.51925 -3.928e-06 0 2.75073 0 6.14391C0 9.5371 2.51925 12.2878 5.6269 12.2878Z" transform="translate(64.5977 6.36597)" stroke="#1F1B20" stroke-width="3" stroke-miterlimit="22.9256"/>
<path d="M14.37 14.1521V13.9229C14.3707 13.8786 14.3712 13.8342 14.3712 13.7896V5.42728C14.3712 3.82898 13.8291 2.32889 12.8864 1.0421C11.4477 -0.857194 9.90633 0.37787 9.66221 0.594179C8.17257 1.97371 6.07795 2.83213 3.75825 2.83213C2.40339 2.83213 1.12551 2.53918 -3.93877e-06 2.02086" transform="translate(66.4521 19.1467)" stroke="#1F1B20" stroke-width="3" stroke-miterlimit="22.9256"/>
<path d="M5.6269 12.2878C8.73455 12.2878 11.2538 9.5371 11.2538 6.14392C11.2538 2.75073 8.73455 -3.49156e-06 5.6269 -3.49156e-06C2.51925 -3.49156e-06 2.62584e-06 2.75073 2.62584e-06 6.14392C2.62584e-06 9.5371 2.51925 12.2878 5.6269 12.2878Z" transform="translate(34.332 6.77979)" stroke="#1F1B20" stroke-width="3" stroke-miterlimit="22.9256"/>
<path d="M16.0108 1.0246C14.5699 2.14994 12.6808 2.83216 10.6128 2.83216C8.31016 2.83216 6.22965 1.98614 4.74226 0.624939C4.74226 0.624939 3.05254 -1.02777 1.48459 1.04214C0.542371 2.32871 -3.50113e-06 3.82924 -3.50113e-06 5.42731V13.7896C-3.50113e-06 13.9613 0.00627227 14.1323 0.0185962 14.3016V14.6706" transform="translate(29.332 19.5605)" stroke="#1F1B20" stroke-width="3" stroke-miterlimit="22.9256"/>
<path fill-rule="evenodd" clip-rule="evenodd" d="M3.75825 2.83213C2.40339 2.83213 1.12551 2.53918 -3.93877e-06 2.02086C0.0150089 2.20734 0.022633 2.39549 0.022633 2.58499V9.77055C5.22839 10.6389 10.0721 12.1415 14.37 14.1521V13.9229C14.3707 13.8786 14.3712 13.8342 14.3712 13.7896V5.42728C14.3712 3.82898 13.8291 2.32889 12.8864 1.0421C11.4477 -0.857194 9.90633 0.37787 9.66221 0.594179C8.17257 1.97371 6.07795 2.83213 3.75825 2.83213V2.83213Z" transform="translate(66.4521 19.1467)" stroke="#1F1B20" stroke-width="3" stroke-miterlimit="22.9256"/>
<path fill-rule="evenodd" clip-rule="evenodd" d="M21.2258 12.6129V5.42732C21.2258 5.23782 21.2182 5.04967 21.2031 4.86319C21.0916 3.47629 20.5718 2.17642 19.741 1.04214C18.3023 -0.857156 16.7609 0.377907 16.5168 0.594216C15.0272 1.97374 12.9325 2.83216 10.6128 2.83216C8.31016 2.83216 6.22965 1.98615 4.74226 0.624942C4.74226 0.624942 3.05253 -1.02777 1.48459 1.04214C0.771481 2.01598 0.28737 3.11227 0.0941076 4.28074C0.0320397 4.65605 3.93877e-06 5.03883 3.93877e-06 5.42732V12.6695C3.44959 12.0745 7.06084 11.7584 10.7797 11.7584C14.3788 11.7584 17.8771 12.0545 21.2258 12.6129V12.6129Z" transform="translate(45.2485 16.3044)" stroke="#1F1B20" stroke-width="3" stroke-miterlimit="22.9256"/>
<path fill-rule="evenodd" clip-rule="evenodd" d="M15.9167 9.41338V2.17117C15.9167 1.78269 15.9488 1.3999 16.0108 1.0246C14.5699 2.14994 12.6808 2.83216 10.6128 2.83216C8.31016 2.83216 6.22965 1.98614 4.74226 0.624939C4.74226 0.624939 3.05254 -1.02777 1.48459 1.04214C0.542371 2.32871 -3.50113e-06 3.82924 -3.50113e-06 5.42731V13.7896C-3.50113e-06 13.9613 0.00627227 14.1323 0.0185962 14.3016V14.6706C4.67694 12.2356 10.0642 10.4229 15.9167 9.41338Z" transform="translate(29.332 19.5605)" stroke="#1F1B20" stroke-width="3" stroke-miterlimit="22.9256"/>
<path fill-rule="evenodd" clip-rule="evenodd" d="M5.66846 2.83214C3.4683 2.83214 1.47092 2.05963 -2.62584e-06 0.803564C0.0245333 1.04155 0.0370874 1.28222 0.0370874 1.52512V9.88742C0.0370874 9.932 0.0366353 9.97646 0.0358511 10.0207V14.2673C5.91494 13.6477 11.4108 12.2308 16.2814 10.1828V5.42728C16.2814 3.82899 15.7393 2.3289 14.7966 1.0421C13.3579 -0.857192 11.8165 0.377871 11.5724 0.59418C10.0828 1.97371 7.98817 2.83214 5.66846 2.83214V2.83214Z" transform="translate(62.7393 73.8594)" stroke="#1F1B20" stroke-width="3" stroke-miterlimit="22.9256"/>
<path fill-rule="evenodd" clip-rule="evenodd" d="M7.43381 7.66757C7.43381 5.4609 8.49916 3.52597 10.099 2.44264C9.07189 0.958754 7.44222 -1.30933e-06 5.60741 -1.30933e-06C2.65862 -1.30933e-06 0.239425 2.47671 4.37641e-06 5.62895C1.65836 6.69764 2.77087 8.66879 2.77087 10.9237C2.77087 11.0972 2.76427 11.269 2.75139 11.4388C3.58852 11.9782 4.56491 12.2879 5.60741 12.2879C6.69416 12.2879 7.70886 11.9515 8.56907 11.369C7.85641 10.3396 7.43381 9.05749 7.43381 7.66757V7.66757Z" transform="translate(42.8154 2)" stroke="#1F1B20" stroke-width="3" stroke-miterlimit="22.9256"/>
<path d="M44.9358 0.699206C53.073 6.18034 58.1204 13.8118 58.1204 22.2517C58.1204 38.9351 38.399 52.4597 14.0715 52.4597C9.15087 52.4597 4.41848 51.906 0 50.8856M44.9358 0.699206L45.637 6.24179M44.9358 0.699206L50.4937 0" transform="translate(41.957 36.019)" stroke="#1F1B20" stroke-width="3" stroke-miterlimit="22.9256"/>
<path d="M34.0789 0C27.8958 10.5204 15.4958 18.8648 0 22.8926" transform="translate(71.9209 72.1075)" stroke="#1F1B20" stroke-width="3" stroke-miterlimit="22.9256"/>
<path d="M-1.53174e-06 22.6197C1.69499 13.8376 7.60747 5.96816 16.296 2.61867e-06" transform="translate(2 31.6264)" stroke="#1F1B20" stroke-width="3" stroke-miterlimit="22.9256"/>
</svg>
