<svg width="50" height="48" viewBox="0 0 50 48" fill="none" xmlns="http://www.w3.org/2000/svg">
<path d="M19.294 45.9669V40.0922H3.90404C2.06331 40.0922 0.381699 38.664 0.0737381 36.8295C0.0275497 36.556 0.00404263 36.279 0.00346188 36.0015C0.000115396 25.3384 -0.000804888 14.6754 0.000701031 4.01234C0.000834712 3.04571 0.346558 2.11169 0.97418 1.38235C1.6018 0.65301 2.46904 0.177485 3.41613 0.0433808C3.60428 0.0163206 3.79406 0.00241925 3.98411 0.00177582C17.9092 0.000591941 31.8342 0 45.7591 0C47.7147 0 49.4036 1.48586 49.6679 3.44306C49.6958 3.64608 49.71 3.85077 49.7106 4.05572C49.7126 14.7401 49.7132 25.4245 49.7124 36.1091C49.7124 38.0924 48.2082 39.8152 46.2593 40.0618C46.0998 40.0816 45.9393 40.0914 45.7786 40.0912C40.7154 40.0927 35.6522 40.0927 30.5889 40.0912H30.4158V45.9659H30.5663C32.3597 45.9659 34.1532 45.9659 35.9467 45.9659C36.2866 45.9659 36.5436 46.1237 36.6821 46.4388C36.8147 46.7404 36.7765 47.0326 36.5662 47.2914C36.4186 47.4728 36.2213 47.5611 35.9912 47.5763C35.9661 47.5781 35.941 47.5763 35.9159 47.5763H13.7977C13.4061 47.5763 13.0977 47.3607 12.9923 47.0146C12.8311 46.4857 13.2104 45.9664 13.7641 45.9654C14.9653 45.963 16.1666 45.963 17.368 45.9654H19.294V45.9669ZM1.59547 32.0571H48.1176V31.9075C48.1176 22.6082 48.1176 13.309 48.1176 4.00981C48.1176 2.69062 47.0506 1.61194 45.7435 1.61194H3.96855C3.33957 1.61341 2.73678 1.86663 2.29205 2.3162C1.84732 2.76576 1.59686 3.37507 1.59547 4.01082C1.59547 13.3058 1.59547 22.6007 1.59547 31.8955V32.0571ZM1.59547 33.6853V33.8167C1.59547 34.582 1.59547 35.3473 1.59547 36.1126C1.59672 37.4001 2.66844 38.4805 3.94445 38.4808H45.7683C47.0446 38.4808 48.1163 37.4006 48.1176 36.1129C48.1176 35.3476 48.1176 34.5823 48.1176 33.817V33.6856L1.59547 33.6853ZM20.8986 40.0965V45.9588H28.8047V40.0965H20.8986Z" transform="translate(0 0.408203)" fill="black"/>
<path d="M41.7664 25.653V1.61828H1.60531V25.653H1.79531C12.8903 25.653 23.9852 25.653 35.0801 25.653C35.4245 25.653 35.7028 25.7692 35.87 26.0861C36.1584 26.6333 35.7696 27.2657 35.1469 27.2657H0.859378C0.326031 27.2657 0 26.9359 0 26.3938C0 17.89 0 9.38615 0 0.88233C0 0.326498 0.324526 0 0.876696 0H42.486C43.0444 0 43.3667 0.32599 43.3667 0.891209C43.3667 9.39926 43.3667 17.9073 43.3667 26.4153C43.3667 26.8509 43.1157 27.1746 42.7141 27.2538C42.66 27.2628 42.6051 27.2665 42.5503 27.265C41.1586 27.265 39.767 27.265 38.3753 27.265C37.8957 27.265 37.5408 26.9202 37.5423 26.4564C37.5438 26.0051 37.9032 25.6548 38.3736 25.6538C39.4522 25.6517 40.5308 25.6517 41.6096 25.6538L41.7664 25.653Z" transform="translate(3.17383 3.61523)" fill="black"/>
<path d="M16.3234 1.72813H0V0H16.3234V1.72813Z" transform="translate(25.48 24.4497)" fill="black"/>
<path d="M0 0H12.8829V1.7299H0V0Z" transform="translate(28.9199 11.395)" fill="black"/>
<path d="M12.8856 0V1.72508H0V0H12.8856Z" transform="translate(9.14355 11.3989)" fill="black"/>
<path d="M11.1689 0V1.72965H0V0H11.1689Z" transform="translate(30.6382 7.05029)" fill="black"/>
<path d="M0 1.72737V0H10.3115V1.72737H0Z" transform="translate(21.1768 15.7471)" fill="black"/>
<path d="M10.307 0V1.73066H0V0H10.307Z" transform="translate(31.4995 20.0942)" fill="black"/>
<path d="M3.43952 0L5.04232 0.648175L1.6038 9.35376L0 8.70736L3.43952 0Z" transform="translate(13.064 18.0254)" fill="black"/>
<path d="M8.58374 0V1.72508H0V0H8.58374Z" transform="translate(33.2256 15.7476)" fill="black"/>
<path d="M4.79485 1.20933L2.42679 3.59604L4.80639 5.99593L3.57656 7.23546L0 3.62775L3.59639 0L4.79485 1.20933Z" transform="translate(7.94189 19.0923)" fill="black"/>
<path d="M4.834 3.6417L1.21954 7.27427L0.0195777 6.06266L2.40571 3.65642L0 1.23191L1.21954 0L4.834 3.6417Z" transform="translate(18.4194 19.0605)" fill="black"/>
<path d="M4.29187 0V1.73041H0V0H4.29187Z" transform="translate(24.6182 7.04883)" fill="black"/>
<path d="M3.43249 0V1.72508H0V0H3.43249Z" transform="translate(23.7598 11.3989)" fill="black"/>
<path d="M0 1.73269V0H1.70922V1.73269H0Z" transform="translate(24.6206 20.0942)" fill="black"/>
<path d="M0 1.7294V0H1.70671V1.7294H0Z" transform="translate(17.7407 7.04834)" fill="black"/>
<path d="M1.71072 0V1.7294H0V0H1.71072Z" transform="translate(21.1802 7.04834)" fill="black"/>
<path d="M1.71449 0V1.72914H0V0H1.71449Z" transform="translate(28.0562 20.0962)" fill="black"/>
</svg>
