<svg width="27" height="22" viewBox="0 0 27 22" fill="none" xmlns="http://www.w3.org/2000/svg">
<path fill-rule="evenodd" clip-rule="evenodd" d="M3.7353 20H19.2647L23 -2.43336e-07H9.58137e-08L3.7353 20Z" transform="translate(2 1)" stroke="#C3C3C3" stroke-width="2" stroke-miterlimit="22.9256"/>
<path d="M0.115963 -0.391571L-0.632833 -0.570144L-0.491501 0.186591L1.00103 8.17809L1.07727 8.58629H1.49253H17.0219H17.4372L17.5134 8.17809L18.9388 0.546215L19.0332 0.0405799L18.5251 -0.0394862L18.4473 0.454419L18.5251 -0.0394985L18.5249 -0.0395212L18.5244 -0.0395977L18.5227 -0.0398732L18.5161 -0.0409062L18.4908 -0.0448265L18.3946 -0.0595034C18.3111 -0.0721032 18.1903 -0.0900454 18.0399 -0.111549C17.7393 -0.154538 17.3199 -0.211851 16.8447 -0.269189C15.9005 -0.383117 14.7131 -0.499999 13.7988 -0.499999C12.8508 -0.499999 11.9663 -0.300057 11.0239 -0.0809039C10.9873 -0.0723904 10.9506 -0.0638364 10.9137 -0.0552499C9.99289 0.159138 8.985 0.393804 7.71815 0.524951C6.43909 0.657357 4.55637 0.437256 2.95217 0.170364C2.1588 0.0383697 1.44847 -0.10239 0.93649 -0.210169C0.680638 -0.264029 0.474672 -0.309578 0.333045 -0.341572C0.26224 -0.357568 0.207541 -0.370169 0.170757 -0.378722L0.12925 -0.388429L0.119003 -0.390849L0.116581 -0.391424L0.116054 -0.391549L0.115987 -0.391565L0.115963 -0.391571Z" transform="translate(4.24316 12.9138)" fill="#0090D1" stroke="#0090D1" stroke-miterlimit="22.9256"/>
</svg>
