<svg width="39" height="26" viewBox="0 0 39 26" fill="none" xmlns="http://www.w3.org/2000/svg">
<path d="M11.9033 7.82812H16.8838V24.5625C16.8838 26.1009 16.5407 27.4622 15.8545 28.6465C15.1794 29.8197 14.222 30.7272 12.9824 31.3691C11.7428 32.0111 10.3428 32.332 8.78223 32.332C6.22559 32.332 4.2334 31.6846 2.80566 30.3896C1.37793 29.0837 0.664062 27.2409 0.664062 24.8613H5.67773C5.67773 26.0456 5.92676 26.9199 6.4248 27.4844C6.92285 28.0488 7.70866 28.3311 8.78223 28.3311C9.73405 28.3311 10.4922 28.0046 11.0566 27.3516C11.6211 26.6986 11.9033 25.7689 11.9033 24.5625V7.82812ZM33.3446 25.6582C33.3446 24.7174 33.0125 23.998 32.3485 23.5C31.6844 22.9909 30.4891 22.4596 28.7625 21.9062C27.036 21.3418 25.6691 20.7884 24.662 20.2461C21.9172 18.763 20.5448 16.7653 20.5448 14.2529C20.5448 12.9469 20.91 11.7848 21.6405 10.7666C22.382 9.7373 23.439 8.9349 24.8114 8.35938C26.1948 7.78385 27.7443 7.49609 29.4598 7.49609C31.1864 7.49609 32.7248 7.81152 34.075 8.44238C35.4253 9.06217 36.4712 9.94206 37.2127 11.082C37.9653 12.222 38.3416 13.5169 38.3416 14.9668H33.3612C33.3612 13.86 33.0125 13.0023 32.3153 12.3936C31.618 11.7738 30.6385 11.4639 29.3768 11.4639C28.1593 11.4639 27.2131 11.724 26.5379 12.2441C25.8628 12.7533 25.5252 13.4284 25.5252 14.2695C25.5252 15.0553 25.9181 15.7139 26.7039 16.2451C27.5008 16.7764 28.6685 17.2744 30.2069 17.7393C33.0402 18.5915 35.1043 19.6484 36.3993 20.9102C37.6942 22.1719 38.3416 23.7435 38.3416 25.625C38.3416 27.7168 37.5503 29.3604 35.9676 30.5557C34.3849 31.7399 32.2544 32.332 29.576 32.332C27.7166 32.332 26.0233 31.9945 24.4959 31.3193C22.9686 30.6331 21.801 29.6979 20.993 28.5137C20.1961 27.3294 19.7977 25.957 19.7977 24.3965H24.7948C24.7948 27.0638 26.3885 28.3975 29.576 28.3975C30.7603 28.3975 31.6844 28.1595 32.3485 27.6836C33.0125 27.1966 33.3446 26.5215 33.3446 25.6582Z" transform="translate(0 -7)" fill="white"/>
</svg>
