<svg width="49" height="48" viewBox="0 0 49 48" fill="none" xmlns="http://www.w3.org/2000/svg">
<path d="M43.5343 40.3501L42.7292 40.0339C46.7778 35.6222 49 29.9556 49 24C49 19.1277 47.4963 14.4397 44.7566 10.4987C44.7234 10.4347 44.6823 10.377 44.6344 10.3267C43.4342 8.63212 42.0054 7.07794 40.3659 5.71172C40.0404 5.4405 39.5522 5.47913 39.2753 5.79797C38.9984 6.11681 39.0379 6.59522 39.3633 6.86634C40.6786 7.96237 41.8493 9.1875 42.8649 10.5134C41.2273 11.1404 39.2615 11.6714 37.0671 12.0909C36.4613 10.3228 35.7167 8.67431 34.8414 7.18697C33.6617 5.18213 32.3047 3.56775 30.8258 2.38041C33.1275 3.02503 35.3202 4.02384 37.3324 5.35538C37.6865 5.58947 38.1673 5.49844 38.4065 5.15156C38.6457 4.80478 38.5526 4.33369 38.1985 4.09931C34.1465 1.4175 29.4096 0 24.5 0C17.9557 0 11.8034 2.49638 7.17601 7.02956C2.54838 11.5625 0 17.5895 0 24C0 29.9632 2.22529 35.6306 6.28042 40.0439L5.48551 40.3489C5.19276 40.4525 2.70342 41.4251 2.70342 44.5257V47.2414C2.70342 47.6601 3.04968 48 3.47709 48H7.92766H8.62046H9.44571H13.4042H14.8652C14.9025 48 14.939 47.9965 14.9749 47.9915C15.0108 47.9965 15.0472 48 15.0845 48H18.2326C18.66 48 19.0063 47.6608 19.0063 47.2421C19.0063 46.8234 18.6599 46.4842 18.2326 46.4842H15.8582V43.8447C15.8582 41.06 18.0911 40.259 18.1813 40.2278C18.1933 40.2239 18.2051 40.2197 18.217 40.2151L21.9846 38.7697C21.9928 38.7783 22.0004 38.7873 22.009 38.7955L24.0113 40.706C24.1559 40.8438 24.3497 40.9209 24.5512 40.9209C24.5552 40.9209 24.5593 40.9209 24.5634 40.9208C24.7692 40.9178 24.9655 40.8342 25.1082 40.6889L27.0308 38.7348L30.7933 40.2128C30.807 40.2183 30.816 40.2217 30.83 40.2262C30.925 40.2589 33.1583 41.0602 33.1583 43.8447V46.4842H27.4993H21.5168H20.6506C20.2232 46.4842 19.877 46.8235 19.877 47.2421C19.877 47.6608 20.2233 48 20.6506 48H21.5168H27.4993H33.932H33.9321H33.9322H34.9193H35.612H36.4374H40.3957H45.5393C45.9667 48 46.3129 47.6554 46.3129 47.2368V44.5257C46.3131 41.437 43.8426 40.4599 43.5343 40.3501ZM41.1933 39.4305L40.4306 39.1309V38.6996C41.2735 38.2154 41.9213 37.4398 42.2291 36.5147C43.3547 36.4276 44.2437 35.5044 44.2437 34.3799C44.2437 33.7111 43.9291 33.1133 43.4376 32.7198V31.3728C43.4376 28.7757 41.4482 26.6267 38.8841 26.3078C38.9133 25.7939 38.9335 25.2762 38.9432 24.7579H47.4383C47.2524 30.2438 45.0525 35.4257 41.1933 39.4305ZM38.4001 37.7243H37.6945C36.3274 37.7243 35.2152 36.6349 35.2152 35.2958V33.2905C36.2231 33.1834 38.0082 32.8383 39.3836 31.7131C39.6916 32.2307 40.1683 32.7905 40.8794 33.1174V35.2957C40.8793 36.6349 39.7671 37.7243 38.4001 37.7243ZM38.8834 39.2107V39.6308L38.0213 40.507L37.2113 39.7342V39.2106C37.3699 39.2292 37.5309 39.24 37.6946 39.24H38.4002C38.5639 39.2401 38.7247 39.2293 38.8834 39.2107ZM34.444 31.824C34.4432 31.824 34.4423 31.824 34.4414 31.824C34.4148 31.824 34.3884 31.8254 34.3625 31.8279C34.3542 31.8288 34.346 31.8305 34.3377 31.8316C34.3203 31.8338 34.3029 31.8359 34.2858 31.8394C34.2742 31.8416 34.263 31.8451 34.2515 31.848C34.2382 31.8513 34.2248 31.8541 34.2119 31.858C34.2034 31.8606 34.1955 31.864 34.1872 31.8668V31.3729C34.1872 29.3923 35.832 27.7811 37.8538 27.7811H38.2238C40.2456 27.7811 41.8901 29.3923 41.8901 31.3729V31.8607C41.8756 31.8561 41.8608 31.8525 41.8459 31.8488C41.8388 31.8469 41.8317 31.8446 41.8246 31.8428C40.746 31.6026 40.3932 30.1925 40.3906 30.1818C40.3236 29.8913 40.089 29.6663 39.7911 29.6067C39.4931 29.5469 39.1874 29.6637 39.0092 29.905C37.6082 31.8022 34.485 31.824 34.444 31.824ZM42.4266 34.8907V33.8693C42.5895 33.9832 42.6963 34.1695 42.6963 34.3801C42.6963 34.5907 42.5895 34.7767 42.4266 34.8907ZM43.773 11.7889C46.0141 15.1804 47.2973 19.1286 47.4381 23.242H38.9428C38.8801 19.8306 38.3934 16.5402 37.5257 13.5437C39.9044 13.0808 42.0253 12.4894 43.773 11.7889ZM37.3953 23.2422H29.4768C29.4759 23.2421 29.4751 23.2422 29.4744 23.2422C28.4188 22.0992 26.9351 21.3441 25.2737 21.2184V14.7009C29.0703 14.6639 32.7341 14.3546 35.9983 13.8172C36.8525 16.7152 37.3319 19.9152 37.3953 23.2422ZM30.5704 31.1564C30.5704 31.6022 30.2631 31.978 29.8451 32.0936V30.2189C30.2631 30.3347 30.5704 30.7106 30.5704 31.1564ZM25.2737 1.55784C28.3525 1.87997 31.2493 4.11778 33.5008 7.94391C34.2909 9.2865 34.9693 10.7698 35.5286 12.3609C32.4093 12.8613 28.9086 13.1493 25.2736 13.185V1.55784H25.2737ZM24.783 22.7137C27.4184 22.7137 29.5623 24.8141 29.5623 27.3958V28.322C29.5571 28.3179 29.5517 28.3144 29.5464 28.3103C29.5352 28.3017 29.5238 28.2933 29.5121 28.2853C29.503 28.2791 29.4936 28.2734 29.4842 28.2676C29.4726 28.2604 29.4612 28.2533 29.4491 28.2467C29.4381 28.2406 29.4267 28.2353 29.4154 28.2297C29.4046 28.2245 29.3939 28.2191 29.3828 28.2142C29.3692 28.2083 29.3551 28.2035 29.3412 28.1983C29.3316 28.1948 29.322 28.1911 29.3122 28.1879C29.2966 28.1828 29.2806 28.1788 29.2646 28.1748C29.2575 28.1728 29.2505 28.1705 29.2432 28.1688C27.7735 27.8414 27.3079 25.9643 27.304 25.9479C27.2369 25.6575 27.0023 25.4325 26.7044 25.3729C26.4066 25.3129 26.1007 25.4299 25.9225 25.6712C24.1108 28.1248 20.1086 28.1499 20.0557 28.1499C20.0556 28.1499 20.0555 28.1499 20.0555 28.1499C20.0545 28.1499 20.0537 28.1499 20.0528 28.1499C20.0262 28.1499 19.9998 28.1513 19.9738 28.1538C19.9657 28.1547 19.9578 28.1563 19.9497 28.1574C19.9322 28.1598 19.9144 28.1618 19.8972 28.1652C19.8862 28.1675 19.8754 28.1708 19.8644 28.1735C19.8506 28.1768 19.8366 28.1798 19.8232 28.1839C19.8106 28.1877 19.7986 28.1927 19.7863 28.1971C19.7751 28.2011 19.7635 28.2047 19.7524 28.2092C19.7382 28.2151 19.7247 28.222 19.7112 28.2285C19.7024 28.2327 19.6935 28.2364 19.6849 28.241C19.6709 28.2483 19.6579 28.2567 19.6445 28.2648C19.6368 28.2696 19.6288 28.2738 19.6212 28.2788C19.6087 28.287 19.5969 28.2962 19.5849 28.3052C19.5771 28.3109 19.5691 28.3162 19.5615 28.3223C19.5544 28.328 19.5478 28.3344 19.5409 28.3404V27.3957C19.5409 24.814 21.6848 22.7137 24.3202 22.7137H24.783ZM11.6047 23.2421C11.6681 19.9146 12.1477 16.7138 13.002 13.8156C16.2709 14.3538 19.9386 14.6637 23.7263 14.701V21.2262C22.1045 21.375 20.6587 22.1252 19.6246 23.2472C19.5965 23.2442 19.5678 23.2422 19.5388 23.2422H11.6047V23.2421ZM19.2791 30.2111V32.1017C18.8453 31.9966 18.5225 31.6133 18.5225 31.1564C18.5224 30.6996 18.8453 30.3163 19.2791 30.2111ZM23.7263 1.55784V13.185C20.1 13.149 16.5965 12.8599 13.4721 12.3586C14.0313 10.7684 14.7095 9.28603 15.4992 7.94391C17.7507 4.11778 20.6475 1.87997 23.7263 1.55784ZM18.1657 2.38706C16.6901 3.57394 15.336 5.18578 14.1585 7.18688C13.2835 8.67384 12.5392 10.3216 11.9335 12.0892C9.74181 11.6703 7.77923 11.1405 6.14462 10.5159C9.10778 6.65484 13.3091 3.75506 18.1657 2.38706ZM5.234 11.7924C6.97733 12.4903 9.09859 13.0795 11.475 13.5419C10.6067 16.5388 10.12 19.8299 10.0571 23.2421H1.56187C1.70495 19.0322 3.03475 15.1118 5.234 11.7924ZM10.2195 39.2107C10.378 39.2294 10.5391 39.2401 10.7028 39.2401H11.4085C11.5719 39.2401 11.733 39.2294 11.8915 39.2107V39.6307L11.0296 40.5069L10.2195 39.7342V39.2107ZM11.4085 37.7243H10.7028C9.33565 37.7243 8.22348 36.6349 8.22348 35.2957V33.2914C9.23114 33.1846 11.0156 32.8389 12.3918 31.7131C12.7 32.2308 13.1766 32.7907 13.8876 33.1176V35.2958C13.8875 36.6349 12.7754 37.7243 11.4085 37.7243ZM13.3992 30.1817C13.3321 29.8912 13.0975 29.6662 12.7996 29.6066C12.5017 29.5468 12.1958 29.6636 12.0178 29.9049C10.6158 31.8033 7.49011 31.8241 7.4524 31.8241C7.45145 31.8241 7.45068 31.8241 7.44982 31.8241C7.42321 31.8241 7.3968 31.8254 7.37086 31.8279C7.36273 31.8289 7.35488 31.8305 7.34675 31.8316C7.32923 31.8338 7.31143 31.836 7.29421 31.8394C7.2832 31.8416 7.27248 31.845 7.26147 31.8476C7.24769 31.851 7.23372 31.854 7.22023 31.858C7.2119 31.8606 7.20405 31.864 7.19582 31.8668V31.3729C7.19582 29.3923 8.84058 27.781 10.8624 27.781H11.2325C13.2542 27.781 14.8988 29.3923 14.8988 31.3729V31.8607H14.8986C14.8837 31.856 14.8683 31.8524 14.8532 31.8486C14.8464 31.8469 14.8398 31.8445 14.8329 31.8429C13.7545 31.6027 13.4018 30.1923 13.3992 30.1817ZM1.56178 24.7579H10.0569C10.0665 25.2799 10.0871 25.8012 10.1165 26.3183C7.59366 26.6737 5.64821 28.8045 5.64821 31.3728V32.7139C5.15199 33.1073 4.83377 33.7076 4.83377 34.3799C4.83377 35.5128 5.73654 36.4408 6.87416 36.516C7.18195 37.4406 7.82947 38.2155 8.67204 38.6996V39.1265L7.82689 39.4507C3.95464 35.4427 1.74783 30.2557 1.56178 24.7579ZM6.67596 33.8525V34.9073C6.49891 34.7956 6.3811 34.6012 6.3811 34.3801C6.3811 34.1588 6.49891 33.9644 6.67596 33.8525ZM14.3107 43.8448V46.4842H13.404H9.44561H8.62036H7.92766H4.25085V44.5257C4.25085 42.4127 5.93713 41.8003 6.00269 41.7775C6.01465 41.7736 6.02662 41.7694 6.03839 41.7648L8.95647 40.6453L10.5071 42.1247C10.6516 42.2626 10.8453 42.3397 11.0468 42.3397C11.0508 42.3397 11.055 42.3397 11.0591 42.3396C11.2649 42.3365 11.4611 42.2529 11.6038 42.1076L13.0685 40.6187L14.8789 41.3298C14.5356 42.018 14.3107 42.8515 14.3107 43.8448ZM21.7753 37.2221L17.6689 38.7974C17.146 38.9737 16.4223 39.3802 15.7803 40.0508L13.4387 39.1309V38.6998C14.2818 38.2155 14.9295 37.4399 15.2373 36.5147C16.3629 36.4276 17.2521 35.5044 17.2521 34.3799C17.2521 33.7111 16.9373 33.1133 16.4459 32.7198V31.3728C16.4459 28.6991 14.3376 26.5002 11.6643 26.2841C11.6348 25.7785 11.6144 25.2685 11.6046 24.7578H18.5966C18.2104 25.5587 17.9933 26.4526 17.9933 27.3956V29.1641C17.3754 29.6189 16.9749 30.3426 16.9749 31.1564C16.9749 32.5167 18.0943 33.6252 19.4782 33.646C19.8413 34.8473 20.6776 35.851 21.7751 36.4491V37.2221H21.7753ZM15.4349 34.8908V33.8691C15.5979 33.9831 15.7048 34.1693 15.7048 34.38C15.7048 34.5907 15.5979 34.7768 15.4349 34.8908ZM25.8017 37.7511C25.8017 37.7521 25.8017 37.7531 25.8017 37.7539V37.7998L24.534 39.0884L23.3227 37.9327V36.979C23.5825 37.0215 23.8489 37.0447 24.121 37.0447H25.0036C25.2755 37.0447 25.5418 37.0215 25.8017 36.9792V37.7511ZM25.0036 35.529H24.121C22.3044 35.529 20.8264 34.0813 20.8264 32.3018V29.6259C22.0612 29.5146 24.5028 29.0941 26.2862 27.5257C26.6626 28.2235 27.2936 29.0336 28.2979 29.4538V32.3017C28.2978 34.0813 26.82 35.529 25.0036 35.529ZM33.241 40.0559C32.5991 39.3837 31.8745 38.9757 31.3504 38.7985L27.3489 37.2264V36.4491C28.4467 35.8509 29.2829 34.847 29.6459 33.6453C31.0151 33.6082 32.1176 32.5063 32.1176 31.1565C32.1176 30.3473 31.7214 29.6273 31.1095 29.1721V27.3957C31.1095 26.4528 30.8925 25.5588 30.5061 24.7579H37.3951C37.3851 25.2707 37.3646 25.7827 37.3347 26.2908C34.7023 26.5466 32.6395 28.7281 32.6395 31.3728V32.7141C32.1434 33.1073 31.8253 33.7077 31.8253 34.38C31.8253 35.513 32.7281 36.441 33.8657 36.5161C34.1735 37.4407 34.8211 38.2156 35.6637 38.6997V39.1266L33.241 40.0559ZM33.6679 33.8525V34.9073C33.4907 34.7956 33.373 34.6012 33.373 34.3801C33.373 34.1588 33.4908 33.9643 33.6679 33.8525ZM44.7658 46.4842H40.3959H36.4376H35.6122H34.9195H34.7059V43.8447C34.7059 42.8555 34.483 42.0247 34.1419 41.3382L35.9484 40.6452L37.4988 42.1246C37.6433 42.2625 37.837 42.3397 38.0386 42.3397C38.0427 42.3397 38.0468 42.3397 38.0508 42.3396C38.2567 42.3365 38.4528 42.2529 38.5956 42.1076L40.0604 40.6187L42.9722 41.7624C42.9858 41.7679 42.9934 41.7707 43.0075 41.7754C43.0792 41.8003 44.7659 42.4128 44.7659 44.5258V46.4842H44.7658Z" fill="black"/>
</svg>
