<svg width="183" height="34" viewBox="0 0 183 34" fill="none" xmlns="http://www.w3.org/2000/svg">
<path d="M0 29.1167V0H15.9442V1.62281H1.81839V13.5627H13.3653V15.2215H1.81939V27.426H16.7308V29.1167H0Z" transform="translate(132.27 4.26953)" fill="#585858"/>
<path d="M20.777 24.0144C22.1687 22.3202 23.1263 20.3134 23.5671 18.1673C24.5238 13.5015 23.6572 9.26226 20.3716 5.68908C18.3101 3.4461 15.6851 2.19978 12.6657 1.84926C8.67267 1.38588 5.14796 2.46343 2.17968 5.21672C2.00955 5.37451 1.85243 5.54827 1.6923 5.71604C1.53218 5.88382 1.40108 6.03162 1.292 6.15445L0 4.8562C0.95285 3.79119 2.05671 2.87101 3.27652 2.12489C8.9879 -1.33345 16.6598 -0.506567 21.4475 4.14017C24.1155 6.73068 25.5126 9.95333 25.7828 13.6364C26.066 17.4932 25.1914 21.0634 22.8876 24.2301C22.7505 24.4188 22.6024 24.5986 22.4562 24.7803C22.3221 24.9461 22.184 25.1089 22.0289 25.2956L25.6917 29.0815L24.5178 30.2879L15.8992 21.3L17.0771 20.1875L20.777 24.0144Z" transform="translate(157.166 3.71289)" fill="#585858"/>
<path d="M10.8693 1.63779H0V0H23.5021V1.62081H12.6507V29.0938H10.8703L10.8693 1.63779Z" transform="translate(102.887 4.28418)" fill="#585858"/>
<path d="M4.00963 1.38913C2.35336 3.99461 1.74789 6.83279 1.96706 9.84373C2.20524 13.1173 3.37814 16.0264 5.67791 18.4092C8.43302 21.2633 11.8256 22.5536 15.7857 22.232C18.3576 22.0233 20.0479 21.3732 22.2196 19.9421L23.3755 21.3242C23.0753 21.524 22.8051 21.7107 22.5249 21.8775C14.3186 26.7709 2.9258 23.1648 0.446898 12.4083C-0.540861 8.12305 0.0946232 4.04954 2.49447 0.30459C2.55451 0.211715 2.62657 0.12583 2.72164 0C3.07591 0.372498 3.40717 0.718032 3.73542 1.06756C3.8355 1.17542 3.92657 1.28926 4.00963 1.38913Z" transform="translate(153.427 9.89648)" fill="#585858"/>
<path d="M1.66728 2.76179C1.90947 11.537 1.6943 20.3151 1.79338 29.1262H0V0.00351043C0.515396 0.00351043 1.0418 -0.009472 1.56621 0.0144957C1.66628 0.0144957 1.78237 0.155306 1.85543 0.257169C7.41837 7.9215 12.977 15.5888 18.5312 23.2592C19.1927 24.1749 19.7652 25.1566 20.3797 26.1053C20.4487 26.2122 20.5238 26.314 20.5648 26.372C20.3977 17.6158 20.5448 8.83161 20.4777 0.0234836H22.2551V29.1582C21.7637 29.1582 21.2663 29.1862 20.777 29.1422C20.6218 29.1282 20.4497 28.9425 20.3426 28.7977C15.8098 22.5654 11.2837 16.3288 6.7642 10.0879C5.0729 7.74208 3.46866 5.32833 1.8274 2.94854C1.77766 2.88328 1.7242 2.82093 1.66728 2.76179Z" transform="translate(74.7314 4.24219)" fill="#4485D1"/>
<path d="M19.1707 29.1628C18.4862 29.1628 17.9178 29.1359 17.3543 29.1728C17.0311 29.1938 16.922 29.022 16.7999 28.7933C15.1259 25.6542 13.4493 22.5165 11.77 19.38C11.2767 18.4563 10.7933 17.5265 10.2789 16.6137C10.1918 16.46 9.97866 16.2802 9.81854 16.2792C7.20053 16.2592 4.58152 16.2662 1.96251 16.2682C1.89786 16.2761 1.83394 16.2892 1.77136 16.3072V29.1339H0V0.0420865C0.0550939 0.0232689 0.112181 0.01087 0.170129 0.00513642C3.43864 0.00513642 6.70815 -0.016834 9.97766 0.0301028C11.736 0.0550691 13.4133 0.441548 14.8564 1.54606C16.6498 2.91921 17.5585 4.7757 17.7426 6.97474C17.9568 9.54328 17.3773 11.8991 15.593 13.8654C14.7653 14.7782 13.8376 15.3285 12.0342 15.9436L19.1707 29.1628ZM1.79738 1.68287V14.5655C4.61554 14.5655 7.40168 14.6114 10.1798 14.5475C10.9341 14.5386 11.6782 14.3731 12.3649 14.0618C13.0516 13.7504 13.666 13.3 14.1689 12.739C15.4168 11.3778 15.8702 9.72104 15.8842 7.92046C15.9072 5.26305 14.5642 3.06601 12.2474 2.20217C11.3938 1.88061 10.434 1.75378 9.51931 1.72082C7.60484 1.64592 5.68537 1.68887 3.76889 1.68387C3.11439 1.68188 2.4699 1.68287 1.79738 1.68287Z" transform="translate(37.4167 4.23828)" fill="#4485D1"/>
<path d="M25.8709 5.02622L30.9037 0L31.8665 1.01563L25.7318 7.15136C23.8673 5.75324 21.6877 4.94733 19.3509 4.49594C12.2304 3.1178 5.71139 7.4899 4.34934 14.5953C3.58575 18.5819 4.17721 22.3339 6.45095 25.7603C6.60607 25.995 6.78121 26.2157 6.94033 26.4334L0.966742 32.3933L0 31.3627L4.76666 26.6091C4.36635 25.8611 3.93802 25.201 3.6398 24.489C1.11386 18.4541 1.5662 12.7189 5.76543 7.58378C8.91885 3.72698 13.1971 2.19704 18.1329 2.60249C21.3434 2.86514 22.2301 3.20867 25.8709 5.02622Z" fill="#4485D1"/>
<path d="M20.792 1.66575H15.652V0H22.5903V13.2222H20.844V9.51717C17.4124 12.9296 13.3452 14.2658 8.67166 13.5947C5.13895 13.0854 2.07459 11.3038 0 8.71825C0.363279 8.39069 0.724556 8.02917 1.13287 7.72958C1.21493 7.66966 1.50916 7.80747 1.64426 7.92431C2.41085 8.58642 3.09538 9.36038 3.92301 9.93161C8.11924 12.8277 13.6675 12.7578 17.9938 9.74686C18.9295 9.09574 19.7412 8.26685 20.5958 7.49989C20.7332 7.36233 20.8142 7.17859 20.823 6.98458C20.839 5.28687 20.832 3.58916 20.83 1.89145C20.8223 1.81546 20.8096 1.74007 20.792 1.66575Z" transform="translate(6.84021 20.1426)" fill="#4485D1"/>
<path d="M0 0H1.74334V29.0968H0V0Z" transform="translate(63.4297 4.26367)" fill="#4485D1"/>
</svg>
