<svg width="95" height="49" viewBox="0 0 95 49" fill="none" xmlns="http://www.w3.org/2000/svg">
<path d="M47.5 49C73.7335 49 95 38.031 95 24.5C95 10.969 73.7335 0 47.5 0C21.2665 0 0 10.969 0 24.5C0 38.031 21.2665 49 47.5 49Z" fill="#FEFEFE"/>
<path fill-rule="evenodd" clip-rule="evenodd" d="M0 32.8814L5.2057 6.7694H17.2429C22.4482 7.09187 25.0511 9.67057 25.0511 14.1841C25.0511 21.9209 18.8697 26.4341 13.3386 26.1116H7.48311L6.18168 32.8814H0ZM8.78416 21.2764L10.411 11.6051H14.6404C16.9178 11.6051 18.5443 12.5721 18.5443 14.5062C18.2192 19.9868 15.6164 20.9539 12.6884 21.2764H8.78453H8.78416ZM23.8417 26.1116L29.047 0H35.2287L33.9272 6.7694H39.7831C44.9888 7.09187 46.9408 9.67057 46.2902 12.8946L44.0128 26.1116H37.5061L39.7835 14.1841C40.1086 12.5721 40.1086 11.6051 37.8315 11.6051H32.9513L30.0233 26.1116H23.8417ZM43.5961 32.8814L48.8014 6.7694H60.839C66.0447 7.09187 68.6475 9.67057 68.6475 14.1841C68.6475 21.9209 62.4658 26.4341 56.9351 26.1116H51.0788L49.7774 32.8814H43.5961ZM52.3799 21.2764L54.0068 11.6051H58.2365C60.5139 11.6051 62.1404 12.5721 62.1404 14.5062C61.8153 19.9868 59.2125 20.9539 56.2845 21.2764H52.3803H52.3799Z" transform="translate(13.3376 6.125)" fill="#4485D1"/>
</svg>
