<svg width="62" height="55" viewBox="0 0 62 55" fill="none" xmlns="http://www.w3.org/2000/svg">
<path d="M11.9968 37.9518C5.38198 37.9518 0 32.5115 0 25.8248C0 19.5454 4.7447 14.3638 10.7998 13.756C11.346 13.7012 11.8208 13.3347 11.9982 12.8097C14.5744 5.18804 21.6433 0 29.7294 0C36.4058 0 42.4461 3.50798 45.8276 9.25429C46.0869 9.69495 46.5693 9.95318 47.076 9.93047C47.2839 9.92116 47.4922 9.91637 47.7005 9.91637C55.3471 9.91637 61.567 16.204 61.567 23.9322C61.5708 31.6624 55.3488 37.9518 47.7023 37.9518H24.2491C23.7341 37.9518 23.3167 37.53 23.3167 37.0094C23.3167 36.4888 23.7341 36.0669 24.2491 36.0669H47.7023C54.3228 36.0669 59.7067 30.621 59.7067 23.9303C59.7067 17.2397 54.3208 11.7976 47.7023 11.7976C47.1443 11.7976 46.5829 11.8353 46.0327 11.9107C45.98 11.918 45.928 11.9301 45.8758 11.9399C45.4737 12.0149 45.0684 11.8109 44.8847 11.4341C42.0074 5.54006 36.2008 1.88121 29.7314 1.88121C21.9414 1.88121 15.1999 7.22732 13.3358 14.8821C13.2356 15.2948 12.8496 15.5614 12.4559 15.5964C12.4243 15.5992 12.3925 15.5987 12.3608 15.5969L12.1888 15.5873C12.1776 15.5867 12.1663 15.5882 12.1551 15.5882C6.40066 15.5882 1.86228 20.1792 1.86228 25.8248C1.86228 31.4721 6.40811 36.0669 11.9968 36.0669H18.4475V33.1904C18.4475 32.7657 18.7882 32.4214 19.2083 32.4214C19.6223 32.4214 19.9603 32.756 19.969 33.1744L20.0287 36.0669H20.6775C21.1925 36.0669 21.6099 36.4888 21.6099 37.0094C21.6099 37.53 21.1925 37.9518 20.6775 37.9518H19.9534H18.4475H11.9968Z" fill="black"/>
<mask id="mask0" mask-type="alpha" maskUnits="userSpaceOnUse" x="0" y="0" width="62" height="38">
<path d="M11.9968 37.9518C5.38198 37.9518 0 32.5115 0 25.8248C0 19.5454 4.7447 14.3638 10.7998 13.756C11.346 13.7012 11.8208 13.3347 11.9982 12.8097C14.5744 5.18804 21.6433 0 29.7294 0C36.4058 0 42.4461 3.50798 45.8276 9.25429C46.0869 9.69495 46.5693 9.95318 47.076 9.93047C47.2839 9.92116 47.4922 9.91637 47.7005 9.91637C55.3471 9.91637 61.567 16.204 61.567 23.9322C61.5708 31.6624 55.3488 37.9518 47.7023 37.9518H24.2491C23.7341 37.9518 23.3167 37.53 23.3167 37.0094C23.3167 36.4888 23.7341 36.0669 24.2491 36.0669H47.7023C54.3228 36.0669 59.7067 30.621 59.7067 23.9303C59.7067 17.2397 54.3208 11.7976 47.7023 11.7976C47.1443 11.7976 46.5829 11.8353 46.0327 11.9107C45.98 11.918 45.928 11.9301 45.8758 11.9399C45.4737 12.0149 45.0684 11.8109 44.8847 11.4341C42.0074 5.54006 36.2008 1.88121 29.7314 1.88121C21.9414 1.88121 15.1999 7.22732 13.3358 14.8821C13.2356 15.2948 12.8496 15.5614 12.4559 15.5964C12.4243 15.5992 12.3925 15.5987 12.3608 15.5969L12.1888 15.5873C12.1776 15.5867 12.1663 15.5882 12.1551 15.5882C6.40066 15.5882 1.86228 20.1792 1.86228 25.8248C1.86228 31.4721 6.40811 36.0669 11.9968 36.0669H18.4475V33.1904C18.4475 32.7657 18.7882 32.4214 19.2083 32.4214C19.6223 32.4214 19.9603 32.756 19.969 33.1744L20.0287 36.0669H20.6775C21.1925 36.0669 21.6099 36.4888 21.6099 37.0094C21.6099 37.53 21.1925 37.9518 20.6775 37.9518H19.9534H18.4475H11.9968Z" fill="black"/>
</mask>
<g mask="url(#mask0)">
<path d="M18.4726 36.0796C18.4657 36.0796 18.4601 36.0852 18.4601 36.0923C18.4601 36.0992 18.4657 36.105 18.4726 36.105V36.0796ZM20.0538 36.105C20.0608 36.105 20.0664 36.0992 20.0664 36.0923C20.0664 36.0852 20.0608 36.0796 20.0538 36.0796V36.105ZM19.9911 37.9772C19.9911 37.9701 19.9855 37.9645 19.9785 37.9645C19.9716 37.9645 19.966 37.9701 19.966 37.9772H19.9911ZM11.0434 46.387C11.0365 46.387 11.0309 46.3926 11.0309 46.3997C11.0309 46.4068 11.0365 46.4124 11.0434 46.4124V46.387ZM18.4852 37.9772C18.4852 37.9701 18.4795 37.9645 18.4726 37.9645C18.4657 37.9645 18.4601 37.9701 18.4601 37.9772H18.4852ZM11.0434 44.7634C11.0365 44.7634 11.0309 44.769 11.0309 44.7761C11.0309 44.7832 11.0365 44.7888 11.0434 44.7888V44.7634ZM18.4726 36.105H20.0538V36.0796H18.4726V36.105ZM19.966 37.9772V45.1312H19.9911V37.9772H19.966ZM18.7236 46.387H11.0434V46.4124H18.7236V46.387ZM18.4601 37.9772V43.5076H18.4852V37.9772H18.4601ZM17.2177 44.7634H11.0434V44.7888H17.2177V44.7634ZM18.4601 43.5076C18.4601 44.2012 17.9038 44.7634 17.2177 44.7634V44.7888C17.9177 44.7888 18.4852 44.2152 18.4852 43.5076H18.4601ZM19.966 45.1312C19.966 45.8248 19.4097 46.387 18.7236 46.387V46.4124C19.4236 46.4124 19.9911 45.8388 19.9911 45.1312H19.966ZM10.8249 13.7814L10.8274 13.8066L10.8249 13.7814ZM12.0233 12.8351L11.9996 12.8269L12.0233 12.8351ZM45.8527 9.27966L45.8743 9.2667L45.8527 9.27966ZM47.1011 9.95584L47.0999 9.9305L47.1011 9.95584ZM61.5921 23.9576H61.567V23.9576L61.5921 23.9576ZM46.0578 11.9361L46.0613 11.9613L46.0578 11.9361ZM45.9009 11.9653L45.9054 11.9902L45.9009 11.9653ZM44.9098 11.4595L44.9324 11.4483L44.9098 11.4595ZM13.3609 14.9074L13.3365 14.9014V14.9014L13.3609 14.9074ZM12.481 15.6218L12.4832 15.6471L12.481 15.6218ZM12.3859 15.6223L12.3845 15.6476L12.3859 15.6223ZM12.2139 15.6127L12.2153 15.5873L12.2139 15.6127ZM18.4726 36.0923V36.1177C18.4865 36.1177 18.4977 36.1063 18.4977 36.0923H18.4726ZM20.0538 36.0923L20.0287 36.0928C20.029 36.1065 20.0402 36.1177 20.0538 36.1177V36.0923ZM19.9941 33.1998L20.0192 33.1992L19.9941 33.1998ZM12.0219 37.9519C5.42096 37.9519 0.0501973 32.5229 0.0501973 25.8501H0C0 32.5511 5.39322 38.0026 12.0219 38.0026V37.9519ZM0.0501973 25.8501C0.0501973 19.5839 4.78498 14.4132 10.8274 13.8066L10.8224 13.7562C4.75461 14.3652 0 19.5576 0 25.8501H0.0501973ZM12.0471 12.8433C14.6198 5.23182 21.6792 0.0507378 29.7545 0.0507378V0C21.6576 0 14.5792 5.19501 11.9996 12.8269L12.0471 12.8433ZM29.7545 0.0507378C36.4222 0.0507378 42.4541 3.55395 45.8312 9.29262L45.8743 9.2667C42.4883 3.51273 36.44 0 29.7545 0V0.0507378ZM47.1021 9.98118C47.31 9.9719 47.5175 9.9671 47.7256 9.9671V9.91637C47.517 9.91637 47.3082 9.92119 47.0999 9.9305L47.1021 9.98118ZM47.7256 9.9671C55.3581 9.9671 61.567 16.2434 61.567 23.9576H61.6172C61.6172 16.2154 55.386 9.91637 47.7256 9.91637V9.9671ZM61.567 23.9576C61.5708 31.6736 55.3601 37.9519 47.7274 37.9519V38.0026C55.3877 38.0026 61.621 31.7017 61.6172 23.9576L61.567 23.9576ZM12.1802 15.5882C6.41216 15.5882 1.86228 20.1903 1.86228 25.8501H1.91248C1.91248 20.2189 6.43936 15.639 12.1802 15.639V15.5882ZM1.86228 25.8501C1.86228 31.5115 6.41936 36.1177 12.0219 36.1177V36.0669C6.44707 36.0669 1.91248 31.4835 1.91248 25.8501H1.86228ZM47.7274 36.1177C54.3617 36.1177 59.7569 30.6603 59.7569 23.9557H59.7067C59.7067 30.6324 54.3341 36.0669 47.7274 36.0669V36.1177ZM59.7569 23.9557C59.7569 17.2511 54.3599 11.7976 47.7274 11.7976V11.8483C54.3321 11.8483 59.7067 17.2791 59.7067 23.9557H59.7569ZM47.7274 11.7976C47.1687 11.7976 46.6054 11.8354 46.0545 11.911L46.0613 11.9613C46.6105 11.8859 47.1702 11.8483 47.7274 11.8483V11.7976ZM45.8964 11.9403C45.5054 12.0132 45.1111 11.8149 44.9324 11.4483L44.8872 11.4707C45.0759 11.8576 45.4923 12.0672 45.9054 11.9902L45.8964 11.9403ZM44.9324 11.4483C42.0508 5.54559 36.2357 1.88121 29.7565 1.88121V1.93195C36.2164 1.93195 42.0142 5.58526 44.8872 11.4707L44.9324 11.4483ZM29.7565 1.88121C21.9549 1.88121 15.2034 7.23531 13.3365 14.9014L13.3853 14.9135C15.2467 7.27006 21.9781 1.93195 29.7565 1.93195V1.88121ZM13.3365 14.9014C13.2393 15.3015 12.8641 15.5622 12.4788 15.5965L12.4832 15.6471C12.8853 15.6113 13.2819 15.3389 13.3853 14.9135L13.3365 14.9014ZM12.3873 15.5969L12.2153 15.5873L12.2125 15.638L12.3845 15.6476L12.3873 15.5969ZM24.2742 36.1177H47.7274V36.0669H24.2742V36.1177ZM47.7274 37.9519H24.2742V38.0026H47.7274V37.9519ZM12.0219 36.1177H18.4726V36.0669H12.0219V36.1177ZM18.4977 36.0923V33.2157H18.4475V36.0923H18.4977ZM20.0538 36.1177H20.7026V36.0669H20.0538V36.1177ZM19.969 33.2003L20.0287 36.0928L20.0789 36.0918L20.0192 33.1992L19.969 33.2003ZM20.7026 37.9519H19.9785V38.0026H20.7026V37.9519ZM19.9785 37.9519H18.4726V38.0026H19.9785V37.9519ZM18.4726 37.9519H12.0219V38.0026H18.4726V37.9519ZM18.4977 33.2157C18.4977 32.805 18.8271 32.4722 19.2334 32.4722V32.4214C18.7994 32.4214 18.4475 32.7771 18.4475 33.2157H18.4977ZM24.2742 36.0669C23.7454 36.0669 23.3167 36.5002 23.3167 37.0348H23.3669C23.3669 36.5281 23.7731 36.1177 24.2742 36.1177V36.0669ZM21.6601 37.0348C21.6601 36.5002 21.2314 36.0669 20.7026 36.0669V36.1177C21.2037 36.1177 21.6099 36.5281 21.6099 37.0348H21.6601ZM12.2153 15.5873C12.2017 15.5867 12.1897 15.5883 12.1802 15.5882V15.639C12.1931 15.6389 12.2037 15.6374 12.2125 15.638L12.2153 15.5873ZM12.4788 15.5965C12.4485 15.5993 12.4185 15.5987 12.3873 15.5969L12.3845 15.6476C12.4167 15.6494 12.4503 15.65 12.4832 15.6471L12.4788 15.5965ZM46.0545 11.911C46.0006 11.9184 45.9481 11.9307 45.8964 11.9403L45.9054 11.9902C45.9584 11.9804 46.0096 11.9683 46.0613 11.9613L46.0545 11.911ZM19.2334 32.4722C19.6338 32.4722 19.9606 32.7956 19.969 33.2003L20.0192 33.1992C20.0103 32.767 19.6611 32.4214 19.2334 32.4214V32.4722ZM10.8274 13.8066C11.3829 13.7509 11.8663 13.378 12.0471 12.8433L11.9996 12.8269C11.8254 13.3421 11.3592 13.7023 10.8224 13.7562L10.8274 13.8066ZM21.6099 37.0348C21.6099 37.5411 21.2037 37.9519 20.7026 37.9519V38.0026C21.2314 38.0026 21.6601 37.5693 21.6601 37.0348H21.6099ZM45.8312 9.29262C46.0954 9.74145 46.5864 10.0043 47.1021 9.98118L47.0999 9.9305C46.6024 9.9528 46.1288 9.69916 45.8743 9.2667L45.8312 9.29262ZM24.2742 37.9519C23.7731 37.9519 23.3669 37.5411 23.3669 37.0348H23.3167C23.3167 37.5693 23.7454 38.0026 24.2742 38.0026V37.9519Z" transform="translate(-0.0249023 -0.0253906)" fill="black"/>
</g>
<mask id="mask1" mask-type="alpha" maskUnits="userSpaceOnUse" x="5" y="42" width="7" height="7">
<path d="M5.82289 2.94279C5.82289 4.56805 4.51939 5.88558 2.91144 5.88558C1.3035 5.88558 0 4.56805 0 2.94279C0 1.31753 1.3035 0 2.91144 0C4.51939 0 5.82289 1.31753 5.82289 2.94279Z" transform="translate(5.24609 42.6196)" fill="black"/>
</mask>
<g mask="url(#mask1)">
<path d="M5.82289 4.5664C5.82289 5.29497 5.23857 5.88558 4.51776 5.88558V9.1328C7.01284 9.1328 9.03552 7.08835 9.03552 4.5664H5.82289ZM4.51776 5.88558C3.79696 5.88558 3.21263 5.29497 3.21263 4.5664H0C0 7.08835 2.02267 9.1328 4.51776 9.1328V5.88558ZM3.21263 4.5664C3.21263 3.83784 3.79696 3.24722 4.51776 3.24722V0C2.02267 0 0 2.04445 0 4.5664H3.21263ZM4.51776 3.24722C5.23857 3.24722 5.82289 3.83784 5.82289 4.5664H9.03552C9.03552 2.04445 7.01284 0 4.51776 0V3.24722Z" transform="translate(3.63965 40.9961)" fill="black"/>
</g>
<path d="M0.811804 0C0.363458 0 0 0.359586 0 0.803157C0 1.24673 0.363458 1.60631 0.811804 1.60631V0ZM13.8007 0.803157H14.6125C14.6125 0.359586 14.249 0 13.8007 0V0.803157ZM12.9889 8.93512C12.9889 9.37869 13.3523 9.73828 13.8007 9.73828C14.249 9.73828 14.6125 9.37869 14.6125 8.93512H12.9889ZM0.811804 1.60631H13.8007V0H0.811804V1.60631ZM12.9889 0.803157V8.93512H14.6125V0.803157H12.9889Z" transform="translate(20.0044 31.7622) rotate(90)" fill="black"/>
<path d="M0.811804 0C0.363458 0 0 0.359586 0 0.803157C0 1.24673 0.363458 1.60631 0.811804 1.60631V0ZM13.8007 1.60631C14.249 1.60631 14.6125 1.24673 14.6125 0.803157C14.6125 0.359586 14.249 0 13.8007 0V1.60631ZM0.811804 1.60631H13.8007V0H0.811804V1.60631Z" transform="translate(26.7549 31.7622) rotate(90)" fill="black"/>
<mask id="mask2" mask-type="alpha" maskUnits="userSpaceOnUse" x="23" y="45" width="6" height="7">
<path d="M5.82289 2.94279C5.82289 4.56805 4.51939 5.88558 2.91144 5.88558C1.3035 5.88558 0 4.56805 0 2.94279C0 1.31753 1.3035 0 2.91144 0C4.51939 0 5.82289 1.31753 5.82289 2.94279Z" transform="translate(23.0405 45.5625)" fill="black"/>
</mask>
<g mask="url(#mask2)">
<path d="M5.82289 4.5664C5.82289 5.29497 5.23857 5.88558 4.51776 5.88558V9.1328C7.01284 9.1328 9.03552 7.08835 9.03552 4.5664H5.82289ZM4.51776 5.88558C3.79696 5.88558 3.21263 5.29497 3.21263 4.5664H0C0 7.08835 2.02267 9.1328 4.51776 9.1328V5.88558ZM3.21263 4.5664C3.21263 3.83784 3.79696 3.24722 4.51776 3.24722V0C2.02267 0 0 2.04445 0 4.5664H3.21263ZM4.51776 3.24722C5.23857 3.24722 5.82289 3.83784 5.82289 4.5664H9.03552C9.03552 2.04445 7.01284 0 4.51776 0V3.24722Z" transform="translate(21.4346 43.9385)" fill="black"/>
</g>
<path d="M0.811804 0C0.363457 0 0 0.359586 0 0.803157C0 1.24673 0.363457 1.60631 0.811804 1.60631V0ZM17.9104 1.60631C18.3588 1.60631 18.7222 1.24673 18.7222 0.803157C18.7222 0.359586 18.3588 0 17.9104 0V1.60631ZM14.5617 0C14.1134 0 13.7499 0.359586 13.7499 0.803157C13.7499 1.24673 14.1134 1.60631 14.5617 1.60631V0ZM12.1263 1.60631C12.5747 1.60631 12.9381 1.24673 12.9381 0.803157C12.9381 0.359586 12.5747 0 12.1263 0V1.60631ZM14.5617 1.60631H17.9104V0H14.5617V1.60631ZM0.811804 1.60631H9.58944V0H0.811804V1.60631ZM9.58944 1.60631H12.1263V0H9.58944V1.60631Z" transform="translate(36.4438 31.7622) rotate(90)" fill="black"/>
<mask id="mask3" mask-type="alpha" maskUnits="userSpaceOnUse" x="32" y="49" width="7" height="7">
<path d="M5.82289 2.94279C5.82289 4.56805 4.51939 5.88558 2.91144 5.88558C1.3035 5.88558 0 4.56805 0 2.94279C0 1.31753 1.3035 0 2.91144 0C4.51939 0 5.82289 1.31753 5.82289 2.94279Z" transform="translate(32.7295 49.1147)" fill="black"/>
</mask>
<g mask="url(#mask3)">
<path d="M5.82289 4.5664C5.82289 5.29497 5.23857 5.88558 4.51776 5.88558V9.1328C7.01284 9.1328 9.03552 7.08835 9.03552 4.5664H5.82289ZM4.51776 5.88558C3.79696 5.88558 3.21263 5.29497 3.21263 4.5664H0C0 7.08835 2.02267 9.1328 4.51776 9.1328V5.88558ZM3.21263 4.5664C3.21263 3.83784 3.79696 3.24722 4.51776 3.24722V0C2.02267 0 0 2.04445 0 4.5664H3.21263ZM4.51776 3.24722C5.23857 3.24722 5.82289 3.83784 5.82289 4.5664H9.03552C9.03552 2.04445 7.01284 0 4.51776 0V3.24722Z" transform="translate(31.1226 47.4902)" fill="black"/>
</g>
<path d="M0.811804 0C0.363458 0 0 0.359586 0 0.803157C0 1.24673 0.363458 1.60631 0.811804 1.60631V0ZM13.8007 0.803157H14.6125C14.6125 0.359586 14.249 0 13.8007 0V0.803157ZM12.9889 8.93512C12.9889 9.37869 13.3523 9.73828 13.8007 9.73828C14.249 9.73828 14.6125 9.37869 14.6125 8.93512H12.9889ZM2.18172 1.60631C2.63007 1.60631 2.99353 1.24673 2.99353 0.803157C2.99353 0.359586 2.63007 0 2.18172 0V1.60631ZM4.49029 0C4.04195 0 3.67849 0.359586 3.67849 0.803157C3.67849 1.24673 4.04195 1.60631 4.49029 1.60631V0ZM12.9889 0.803157V8.93512H14.6125V0.803157H12.9889ZM0.811804 1.60631H2.18172V0H0.811804V1.60631ZM4.49029 1.60631H13.8007V0H4.49029V1.60631Z" transform="translate(41.5889 31.7617) scale(-1 1) rotate(90)" fill="black"/>
<mask id="mask4" mask-type="alpha" maskUnits="userSpaceOnUse" x="50" y="42" width="7" height="7">
<path d="M5.82289 2.94279C5.82289 4.56805 4.51939 5.88558 2.91144 5.88558C1.3035 5.88558 0 4.56805 0 2.94279C0 1.31753 1.3035 0 2.91144 0C4.51939 0 5.82289 1.31753 5.82289 2.94279Z" transform="translate(56.3462 42.6196) scale(-1 1)" fill="black"/>
</mask>
<g mask="url(#mask4)">
<path d="M5.82289 4.5664C5.82289 5.29497 5.23857 5.88558 4.51776 5.88558V9.1328C7.01284 9.1328 9.03552 7.08835 9.03552 4.5664H5.82289ZM4.51776 5.88558C3.79696 5.88558 3.21263 5.29497 3.21263 4.5664H0C0 7.08835 2.02267 9.1328 4.51776 9.1328V5.88558ZM3.21263 4.5664C3.21263 3.83784 3.79696 3.24722 4.51776 3.24722V0C2.02267 0 0 2.04445 0 4.5664H3.21263ZM4.51776 3.24722C5.23857 3.24722 5.82289 3.83784 5.82289 4.5664H9.03552C9.03552 2.04445 7.01284 0 4.51776 0V3.24722Z" transform="translate(57.9526 40.9961) scale(-1 1)" fill="black"/>
</g>
</svg>
