<svg width="30" height="48" viewBox="0 0 30 48" fill="none" xmlns="http://www.w3.org/2000/svg">
<path opacity="0.45" d="M22.443 0L14.9586 13.7158H0L7.47934 0H22.443Z" fill="white"/>
<path opacity="0.6" d="M7.47922 13.7158H22.443L14.9637 0H0L7.47922 13.7158Z" transform="translate(7.47925)" fill="white"/>
<path opacity="0.8" d="M7.47934 27.4262L14.9586 13.7158L7.47934 0L0 13.7158L7.47934 27.4262Z" fill="white"/>
<path opacity="0.45" d="M0 13.7158L7.48449 0H22.4483L14.9638 13.7158H0Z" transform="translate(7.55176 34.2837)" fill="white"/>
<path opacity="0.6" d="M14.9638 0H0L7.47928 13.7158H22.443L14.9638 0Z" transform="translate(0.0725098 34.2842)" fill="white"/>
<path opacity="0.8" d="M7.47934 0L0 13.7105L7.47934 27.4263L14.9638 13.7105L7.47934 0Z" transform="translate(15.0359 20.5737)" fill="white"/>
</svg>
