<svg width="64" height="46" viewBox="0 0 64 46" fill="none" xmlns="http://www.w3.org/2000/svg">
<path d="M61.139 33.7748L57.2671 32.6917C57.1 32.645 56.9832 32.4935 56.9832 32.3232V31.0579C57.2982 30.8442 57.5987 30.6051 57.8796 30.3382C59.2409 29.0448 59.9905 27.31 59.9905 25.4532V23.7072L60.3649 22.9742C60.7757 22.1696 60.9929 21.2687 60.9929 20.3692V15.639C60.9929 15.1321 60.5731 14.7212 60.0554 14.7212H51.0337C47.7533 14.7212 45.0843 17.3343 45.0843 20.5461V20.6008C45.0843 21.3489 45.2649 22.098 45.6065 22.7669L46.0866 23.7071V25.2063C46.0866 27.5822 47.2825 29.714 49.0939 30.9969L49.0941 32.323C49.0941 32.5275 49.0941 32.6122 48.32 32.8288L46.4308 33.3573L40.9656 31.4116C40.9853 31.1591 40.8983 30.9024 40.7101 30.7089L38.9637 28.9125V25.897C39.1484 25.7481 39.3304 25.5951 39.5067 25.4333C41.7099 23.4115 42.9734 20.557 42.9734 17.6018V15.1936C43.6386 13.7762 43.9757 12.2764 43.9757 10.7318V0.917878C43.9757 0.410964 43.556 0 43.0382 0H29.0046C24.0659 0 20.048 3.9339 20.048 8.76916V10.7321C20.048 12.2767 20.3851 13.7765 21.0504 15.1938V17.2659C21.0504 20.697 22.6086 23.7882 25.06 25.8261V28.9127L23.3136 30.709C23.1255 30.9025 23.0385 31.1593 23.0581 31.4117L17.29 33.4652C16.872 33.614 16.4836 33.8156 16.131 34.0598L15.2253 33.6164C17.9215 32.4673 18.7756 30.8512 18.8166 30.7709C18.9486 30.5126 18.9486 30.2083 18.8166 29.95C18.1408 28.6265 18.0589 26.2008 17.9931 24.2517C17.9713 23.6028 17.9505 22.9898 17.9109 22.4439C17.5912 18.0413 14.1727 14.7212 9.959 14.7212C5.74525 14.7212 2.32662 18.0412 2.00712 22.4439C1.9675 22.9899 1.94675 23.6029 1.92488 24.2519C1.85913 26.2009 1.77713 28.6264 1.10137 29.9499C0.969375 30.2082 0.969375 30.5125 1.10137 30.7708C1.14237 30.8511 1.99475 32.4639 4.69637 33.6143L2.1805 34.8458C0.8355 35.5047 0 36.8283 0 38.3005V45.0816C0 45.5885 0.41975 45.9995 0.9375 45.9995C1.45525 45.9995 1.875 45.5885 1.875 45.0816V38.3005C1.875 37.528 2.31337 36.8335 3.019 36.488L6.15188 34.9544L7.24162 35.9683C8.00362 36.6773 8.98112 37.0316 9.959 37.0316C10.9366 37.0316 11.9146 36.6771 12.6764 35.9683L13.766 34.9545L14.7875 35.4546C14.3065 36.2081 14.0335 37.0917 14.0335 38.0173V45.0819C14.0335 45.5888 14.4532 45.9998 14.971 45.9998C15.4887 45.9998 15.9085 45.5888 15.9085 45.0819V38.0173C15.9085 36.7572 16.7211 35.6213 17.9307 35.1906L24.0123 33.0255L26.5439 36.7436C26.8675 37.219 27.3861 37.5238 27.9667 37.5801C28.0315 37.5864 28.0959 37.5894 28.1601 37.5894C28.6724 37.5894 29.163 37.392 29.5298 37.0331L31.0742 35.5209V45.082C31.0742 45.5889 31.494 45.9999 32.0117 45.9999C32.5295 45.9999 32.9492 45.5889 32.9492 45.082V35.5209L34.4938 37.0331C34.8604 37.3921 35.351 37.5895 35.8634 37.5895C35.9275 37.5895 35.992 37.5865 36.0566 37.5802C36.6374 37.5239 37.156 37.2191 37.4796 36.7437L40.0114 33.0257L46.0928 35.1908C47.3022 35.6215 48.115 36.7575 48.115 38.0175V45.0821C48.115 45.589 48.5348 46 49.0525 46C49.5703 46 49.99 45.589 49.99 45.0821V38.0175C49.99 36.7413 49.4721 35.5444 48.6034 34.6592L48.835 34.5944C49.0686 34.5291 49.3874 34.4396 49.7074 34.286L52.101 36.6296V45.0821C52.101 45.589 52.5208 46 53.0385 46C53.5563 46 53.976 45.589 53.976 45.0821V36.6296L56.353 34.3023C56.4794 34.3652 56.6121 34.4183 56.7519 34.4574L60.6239 35.5405C61.5076 35.7877 62.125 36.5889 62.125 37.4889V45.0821C62.125 45.589 62.5448 46 63.0625 46C63.5802 46 64 45.589 64 45.0821V37.4889C64 35.7734 62.8235 34.2461 61.139 33.7748ZM6.01438 32.1536C4.26075 31.5358 3.38112 30.7122 3.00563 30.2624C3.26163 29.6072 3.42762 28.8567 3.54 28.0645C4.057 29.2782 4.92288 30.3143 6.01438 31.0535V32.1536ZM11.385 34.6378C10.5854 35.3816 9.33275 35.3815 8.53337 34.6376L7.6615 33.8265C7.80863 33.5566 7.8895 33.2507 7.8895 32.9302V31.9518C8.5435 32.1519 9.23875 32.2599 9.95925 32.2599C10.6789 32.2599 11.3738 32.1514 12.0289 31.9524L12.0288 32.93C12.0288 33.2507 12.1095 33.5568 12.2568 33.8267L11.385 34.6378ZM9.9595 30.4241C7.16 30.4241 4.88263 28.1943 4.88263 25.4535C4.88263 24.9466 4.46288 24.5356 3.94513 24.5356C3.89263 24.5356 3.84137 24.5409 3.79125 24.5491C3.794 24.4701 3.79663 24.3911 3.79938 24.3129C3.82025 23.6817 3.84037 23.0856 3.8775 22.5743C3.99725 20.925 4.67037 19.4053 5.77287 18.2948C6.88525 17.1742 8.372 16.5572 9.95925 16.5572C11.5465 16.5572 13.0331 17.1742 14.1456 18.2948C15.2481 19.4053 15.9213 20.925 16.041 22.5743C16.078 23.0855 16.0982 23.6815 16.1195 24.3125C16.1214 24.3667 16.1233 24.4217 16.1251 24.4763C15.1051 22.9376 13.5299 21.8038 11.4945 21.1634C9.61413 20.572 7.99688 20.6086 7.92863 20.6103C7.68313 20.617 7.45012 20.7176 7.27975 20.8907L5.58825 22.6082C5.22888 22.9731 5.23962 23.5542 5.61237 23.9061C5.98512 24.2579 6.57863 24.2473 6.938 23.8824L8.3455 22.4534C9.55762 22.5114 13.4572 22.9554 14.9739 26.2251C14.5922 28.6346 12.477 30.4241 9.9595 30.4241ZM13.9036 32.1567L13.9038 31.062C14.9944 30.3268 15.8615 29.2927 16.3789 28.0698C16.4913 28.8602 16.6571 29.6089 16.9126 30.2627C16.5392 30.7082 15.6555 31.5391 13.9036 32.1567ZM22.9254 17.2658V14.9885C22.9254 14.8503 22.8935 14.7138 22.8321 14.5894C22.2289 13.3663 21.923 12.0685 21.923 10.7321V8.76928C21.923 4.94614 25.0999 1.83588 29.0046 1.83588H42.1007V10.7322C42.1007 12.0686 41.7949 13.3664 41.1916 14.5895C41.1302 14.7139 41.0984 14.8504 41.0984 14.9886V17.6021C41.0984 20.0878 40.0777 22.3934 38.2245 24.0942C37.9931 24.3064 37.753 24.5054 37.5047 24.6908C37.4992 24.6945 37.494 24.6985 37.4886 24.7023C35.7525 25.9928 33.626 26.62 31.4053 26.4792C26.6501 26.1778 22.9254 22.1308 22.9254 17.2658ZM28.204 35.7348C28.1975 35.7412 28.1824 35.7562 28.1518 35.7531C28.1213 35.7501 28.1092 35.7326 28.1041 35.725L25.1885 31.4431L26.1268 30.4778L30.5499 33.4379L28.204 35.7348ZM32.0119 32.1927L26.935 28.7951V27.0817C28.2486 27.7769 29.7195 28.2118 31.2839 28.3109C31.531 28.3266 31.7766 28.3343 32.0215 28.3343C33.8141 28.3343 35.5394 27.9147 37.0887 27.1184V28.7951L32.0119 32.1927ZM35.9196 35.7253C35.9145 35.7329 35.9025 35.7504 35.872 35.7533C35.8414 35.7571 35.8264 35.7413 35.8198 35.7351L33.4739 33.4383L37.897 30.4781L38.8354 31.4433L35.9196 35.7253ZM53.0385 34.9508L50.911 32.868C50.9481 32.7029 50.9691 32.5221 50.969 32.3228L50.9689 31.9354C51.5592 32.1251 52.1815 32.2377 52.8254 32.2566C52.8976 32.2588 52.9692 32.2597 53.0412 32.2597C53.7527 32.2597 54.4473 32.1545 55.1082 31.9537V32.3232C55.1082 32.5063 55.1317 32.6858 55.176 32.8582L53.0385 34.9508ZM56.5739 29.0209C55.5802 29.9649 54.2676 30.4635 52.8817 30.4217C50.1687 30.342 47.9616 28.0024 47.9616 25.2065V23.4906C47.9616 23.348 47.9277 23.2075 47.8626 23.0801L47.2835 21.9461C47.0714 21.5306 46.9593 21.0655 46.9593 20.601V20.5463C46.9593 18.3465 48.7871 16.557 51.0337 16.557H59.1179V20.3693C59.1179 20.9854 58.9691 21.6023 58.6878 22.1534L58.2145 23.0801C58.1494 23.2076 58.1155 23.348 58.1155 23.4906V25.4534C58.1155 26.8094 57.568 28.0763 56.5739 29.0209Z" fill="black"/>
</svg>
