<svg width="49" height="48" viewBox="0 0 49 48" fill="none" xmlns="http://www.w3.org/2000/svg">
<path d="M41.0949 6.93911C36.5481 2.46432 30.503 0 24.0729 0C17.6428 0 11.5976 2.46432 7.05071 6.93911C2.50395 11.414 0 17.3635 0 23.6918C0 30.0201 2.50395 35.9696 7.05071 40.4445C11.5976 44.9193 17.6428 47.3836 24.0729 47.3836C30.503 47.3836 36.5481 44.9193 41.0949 40.4445C45.6418 35.9696 48.1457 30.0201 48.1457 23.6918C48.1457 17.3635 45.6418 11.414 41.0949 6.93911ZM24.0729 45.4959C11.8567 45.4959 1.91812 35.7147 1.91812 23.6918C1.91812 11.669 11.8567 1.88776 24.0729 1.88776C36.289 1.88776 46.2276 11.6691 46.2276 23.6918C46.2276 35.7146 36.289 45.4959 24.0729 45.4959Z" transform="translate(0.854492)" fill="black"/>
<path d="M19.5109 0C8.75246 0 0 8.61392 0 19.202C0 29.7901 8.75246 38.4041 19.5109 38.4041C30.2693 38.4041 39.0218 29.7901 39.0218 19.202C39.0218 8.61392 30.2693 0 19.5109 0ZM19.5109 36.5163C9.81016 36.5163 1.91812 28.7492 1.91812 19.202C1.91812 9.65488 9.81016 1.88776 19.5109 1.88776C29.2116 1.88776 37.1037 9.65488 37.1037 19.202C37.1037 28.7492 29.2116 36.5163 19.5109 36.5163Z" transform="translate(5.4165 4.49023)" fill="black"/>
<path d="M1.0362 0C0.506593 0 0.077136 0.422566 0.077136 0.943879C0.077136 1.39338 0.0529691 1.84657 0.00538758 2.29061C-0.0502809 2.80905 0.331784 3.27364 0.858471 3.32842C0.892794 3.33194 0.926644 3.3337 0.960309 3.3337C1.44477 3.3337 1.86088 2.9736 1.91288 2.48884C1.96751 1.9791 1.99525 1.45936 1.99525 0.943879C1.99525 0.422566 1.5658 0 1.0362 0Z" transform="translate(37.7627 22.624)" fill="black"/>
<path d="M11.7049 14.866H6.23101C5.91863 13.8931 5.13692 13.1237 4.14834 12.8163V0.943878C4.14834 0.422566 3.71888 0 3.18928 0C2.65958 0 2.23022 0.422566 2.23022 0.943878V12.8163C0.938841 13.2179 0 14.4079 0 15.8098C0 17.5406 1.43074 18.9487 3.18928 18.9487C4.61381 18.9487 5.8229 18.0247 6.23101 16.7538H11.7049C12.2345 16.7538 12.6639 16.3313 12.6639 15.8099C12.6639 15.2885 12.2345 14.866 11.7049 14.866ZM3.18928 17.0609C2.48825 17.0609 1.91812 16.4997 1.91812 15.8098C1.91812 15.12 2.48825 14.5588 3.18928 14.5588C3.89031 14.5588 4.46044 15.12 4.46044 15.8098C4.46044 16.4997 3.89031 17.0609 3.18928 17.0609Z" transform="translate(21.7378 7.88232)" fill="black"/>
<path d="M27.9891 18.0176C27.4985 17.8213 26.939 18.0537 26.7395 18.5365C24.7554 23.3396 20.0691 26.4431 14.8005 26.4431C7.6973 26.4431 1.91831 20.7557 1.91831 13.7649C1.91831 9.58956 4.03653 5.67013 7.50377 3.31705L7.53885 3.39859C7.84408 4.10851 8.81574 4.22697 9.2877 3.61181L10.6218 1.87324C11.0937 1.25818 10.7123 0.37094 9.93503 0.27608L7.7382 0.00797344C6.96091 -0.0868864 6.37075 0.681987 6.67599 1.39191L6.74275 1.54711C4.81692 2.78001 3.19633 4.4438 2.03049 6.39708C0.702156 8.62245 0 11.1702 0 13.7649C0 21.7966 6.63941 28.3309 14.8003 28.3309C17.8023 28.3309 20.6931 27.451 23.1601 25.7863C25.5681 24.1614 27.4203 21.9003 28.5161 19.2475C28.7159 18.7646 28.4799 18.214 27.9891 18.0176Z" transform="translate(10.1567 9.80273)" fill="black"/>
</svg>
